<?xml version="1.0" encoding="UTF-8" standalone="no"?>
<!-- Created with Inkscape (http://www.inkscape.org/) -->

<svg
   xmlns:dc="http://purl.org/dc/elements/1.1/"
   xmlns:cc="http://creativecommons.org/ns#"
   xmlns:rdf="http://www.w3.org/1999/02/22-rdf-syntax-ns#"
   xmlns:svg="http://www.w3.org/2000/svg"
   xmlns="http://www.w3.org/2000/svg"
   xmlns:xlink="http://www.w3.org/1999/xlink"
   version="1.1"
   width="494.25198"
   height="608.60547"
   id="svg633"
   xml:space="preserve"><metadata
     id="metadata87"><rdf:RDF><cc:Work
         rdf:about=""><dc:format>image/svg+xml</dc:format><dc:type
           rdf:resource="http://purl.org/dc/dcmitype/StillImage" /><dc:title></dc:title></cc:Work></rdf:RDF></metadata><defs
     id="defs635"><linearGradient
       id="linearGradient792"><stop
         id="stop793"
         style="stop-color:#aebd75;stop-opacity:1"
         offset="0" /><stop
         id="stop794"
         style="stop-color:#4c6623;stop-opacity:1"
         offset="1" /></linearGradient><linearGradient
       id="linearGradient717"><stop
         id="stop718"
         style="stop-color:#aebd75;stop-opacity:1"
         offset="0" /><stop
         id="stop719"
         style="stop-color:#7a914c;stop-opacity:1"
         offset="1" /></linearGradient><linearGradient
       x1="335.76395"
       y1="226.37292"
       x2="335.76505"
       y2="289.99649"
       id="linearGradient720"
       xlink:href="#linearGradient717"
       gradientUnits="userSpaceOnUse"
       gradientTransform="matrix(1.4038936,0,0,0.71230469,-94.434413,-72.282097)" /><linearGradient
       x1="-0.0043044793"
       y1="1.1310741"
       x2="0.86577106"
       y2="0.035911914"
       id="linearGradient721"
       xlink:href="#linearGradient792"
       gradientTransform="matrix(1.149322,0,0,0.870079,3.703627e-8,-2.635023e-6)" /><linearGradient
       x1="0.71969694"
       y1="0.13094531"
       x2="0.25378779"
       y2="0.90476149"
       id="linearGradient722"
       xlink:href="#linearGradient792" /><linearGradient
       x1="-0.74572086"
       y1="1.3707867"
       x2="-1.7611107"
       y2="0.20950243"
       id="linearGradient723"
       xlink:href="#linearGradient717"
       gradientTransform="scale(0.983982,1.016279)" /><linearGradient
       x1="0.3583912"
       y1="1.2258657"
       x2="-0.73460901"
       y2="-0.024180101"
       id="linearGradient724"
       xlink:href="#linearGradient717"
       gradientTransform="scale(1.008364,0.991706)" /><linearGradient
       x1="1.006219"
       y1="1.1414386"
       x2="-0.061145976"
       y2="-0.079288878"
       id="linearGradient725"
       xlink:href="#linearGradient717"
       gradientTransform="scale(0.899597,1.111608)" /><linearGradient
       x1="-0.18687743"
       y1="1.0262805"
       x2="-1.2645413"
       y2="-0.20622563"
       id="linearGradient726"
       xlink:href="#linearGradient717"
       gradientTransform="scale(0.994215,1.005819)" /><linearGradient
       x1="-0.75104785"
       y1="0.9130339"
       x2="-1.822602"
       y2="-0.31248474"
       id="linearGradient727"
       xlink:href="#linearGradient717"
       gradientTransform="scale(1.024336,0.976242)" /><linearGradient
       x1="0.33086675"
       y1="0.6599974"
       x2="-0.81821889"
       y2="-0.65419245"
       id="linearGradient728"
       xlink:href="#linearGradient717"
       gradientTransform="scale(1.012145,0.988001)" /><linearGradient
       x1="0.9746415"
       y1="0.60676956"
       x2="-0.15076554"
       y2="-0.68033963"
       id="linearGradient729"
       xlink:href="#linearGradient717"
       gradientTransform="scale(0.988859,1.011267)" /><linearGradient
       x1="-0.16531569"
       y1="0.45148152"
       x2="-1.3129116"
       y2="-0.86100489"
       id="linearGradient730"
       xlink:href="#linearGradient717"
       gradientTransform="scale(1.015664,0.984577)" /><linearGradient
       x1="-0.69390947"
       y1="0.28532657"
       x2="-1.8220556"
       y2="-1.0049154"
       id="linearGradient731"
       xlink:href="#linearGradient717"
       gradientTransform="scale(1.027162,0.973556)" /><linearGradient
       x1="0.37454054"
       y1="0.12655871"
       x2="-0.82857394"
       y2="-1.2494231"
       id="linearGradient732"
       xlink:href="#linearGradient717"
       gradientTransform="scale(1.024735,0.975862)" /><linearGradient
       x1="0.87879175"
       y1="0.038620196"
       x2="-0.30932257"
       y2="-1.3202063"
       id="linearGradient733"
       xlink:href="#linearGradient717"
       gradientTransform="scale(1.035834,0.965405)" /><linearGradient
       x1="-0.11674645"
       y1="-0.071798123"
       x2="-1.2894822"
       y2="-1.4130363"
       id="linearGradient734"
       xlink:href="#linearGradient717"
       gradientTransform="scale(1.024408,0.976174)" /><linearGradient
       x1="-0.58774197"
       y1="-0.17634155"
       x2="-1.7770172"
       y2="-1.5364958"
       id="linearGradient735"
       xlink:href="#linearGradient717"
       gradientTransform="scale(1.064209,0.939665)" /><linearGradient
       x1="0.28052136"
       y1="-0.50025755"
       x2="-0.98238957"
       y2="-1.9446275"
       id="linearGradient736"
       xlink:href="#linearGradient717"
       gradientTransform="scale(1.029561,0.971288)" /><linearGradient
       x1="0.72412598"
       y1="-0.48259845"
       x2="-0.52769178"
       y2="-1.9142815"
       id="linearGradient737"
       xlink:href="#linearGradient717"
       gradientTransform="scale(1.072758,0.932176)" /><linearGradient
       x1="-0.12429834"
       y1="-0.6373291"
       x2="-1.3958713"
       y2="-2.0916059"
       id="linearGradient738"
       xlink:href="#linearGradient717"
       gradientTransform="scale(1.015664,0.984578)" /><linearGradient
       x1="-0.43618548"
       y1="-0.64563066"
       x2="-1.688054"
       y2="-2.0773716"
       id="linearGradient739"
       xlink:href="#linearGradient717"
       gradientTransform="scale(1.064209,0.939665)" /><linearGradient
       x1="0.32236549"
       y1="-1.0664574"
       x2="-1.0732015"
       y2="-2.662544"
       id="linearGradient740"
       xlink:href="#linearGradient717"
       gradientTransform="scale(1.036524,0.964763)" /><linearGradient
       x1="0.51464438"
       y1="-1.1230319"
       x2="-0.8750574"
       y2="-2.7124104"
       id="linearGradient741"
       xlink:href="#linearGradient717"
       gradientTransform="scale(1.090832,0.916732)" /><linearGradient
       x1="0.050321322"
       y1="-1.1552235"
       x2="-1.3625367"
       y2="-2.7710855"
       id="linearGradient742"
       xlink:href="#linearGradient717"
       gradientTransform="scale(1.015663,0.984579)" /><linearGradient
       x1="-0.31020772"
       y1="-1.1871614"
       x2="-1.7010546"
       y2="-2.7778494"
       id="linearGradient743"
       xlink:href="#linearGradient717"
       gradientTransform="scale(1.07493,0.930293)" /><linearGradient
       x1="0.31634852"
       y1="-1.3118882"
       x2="-1.0703973"
       y2="-2.8978863"
       id="linearGradient744"
       xlink:href="#linearGradient717"
       gradientTransform="scale(1.043885,0.95796)" /><linearGradient
       x1="-0.061483849"
       y1="-1.4065545"
       x2="-1.4544979"
       y2="-2.9997211"
       id="linearGradient745"
       xlink:href="#linearGradient717"
       gradientTransform="scale(1.038771,0.962676)" /><radialGradient
       cx="344.24515"
       cy="224.14146"
       r="139.15302"
       fx="344.24515"
       fy="224.14146"
       id="radialGradient750"
       xlink:href="#linearGradient717"
       gradientUnits="userSpaceOnUse"
       gradientTransform="matrix(1.0927911,0,0,0.91508802,-94.434413,-72.282097)" /><radialGradient
       cx="600.95245"
       cy="309.34348"
       r="89.027252"
       fx="600.95245"
       fy="309.34348"
       id="radialGradient751"
       xlink:href="#linearGradient717"
       gradientUnits="userSpaceOnUse"
       gradientTransform="matrix(0.83465415,0,0,1.198101,-94.434413,-72.282097)" /><radialGradient
       cx="232.60066"
       cy="247.68192"
       r="88.361092"
       fx="232.60066"
       fy="247.68192"
       id="radialGradient752"
       xlink:href="#linearGradient717"
       gradientUnits="userSpaceOnUse"
       gradientTransform="matrix(1.2675343,0,0,0.78893326,-94.434413,-72.282097)" /><radialGradient
       cx="499.72998"
       cy="273.44275"
       r="88.427429"
       fx="499.72998"
       fy="273.44275"
       id="radialGradient753"
       xlink:href="#linearGradient717"
       gradientUnits="userSpaceOnUse"
       gradientTransform="matrix(0.88559443,0,0,1.1291851,-94.434413,-72.282097)" /><radialGradient
       cx="291.31833"
       cy="334.24933"
       r="83.274864"
       fx="291.31833"
       fy="334.24933"
       id="radialGradient754"
       xlink:href="#linearGradient717"
       gradientUnits="userSpaceOnUse"
       gradientTransform="matrix(1.089096,0,0,0.91819273,-94.434413,-72.282097)" /><radialGradient
       cx="190.26678"
       cy="326.6796"
       r="84.407158"
       fx="190.26678"
       fy="326.6796"
       id="radialGradient755"
       xlink:href="#linearGradient717"
       gradientUnits="userSpaceOnUse"
       gradientTransform="matrix(1.2216208,0,0,0.81858461,-94.434413,-72.282097)" /><radialGradient
       cx="429.19861"
       cy="350.61151"
       r="87.904289"
       fx="429.19861"
       fy="350.61151"
       id="radialGradient756"
       xlink:href="#linearGradient717"
       gradientUnits="userSpaceOnUse"
       gradientTransform="matrix(0.88686085,0,0,1.1275726,-94.434413,-72.282097)" /><radialGradient
       cx="529.2196"
       cy="382.20554"
       r="88.593773"
       fx="529.2196"
       fy="382.20554"
       id="radialGradient757"
       xlink:href="#linearGradient717"
       gradientUnits="userSpaceOnUse"
       gradientTransform="matrix(0.82398845,0,0,1.2136092,-94.434413,-72.282097)" /><radialGradient
       cx="262.0752"
       cy="400.93594"
       r="79.482124"
       fx="262.0752"
       fy="400.93594"
       id="radialGradient758"
       xlink:href="#linearGradient717"
       gradientUnits="userSpaceOnUse"
       gradientTransform="matrix(1.0385074,0,0,0.96292041,-94.434413,-72.282097)" /><radialGradient
       cx="167.84972"
       cy="422.43732"
       r="79.268654"
       fx="167.84972"
       fy="422.43732"
       id="radialGradient759"
       xlink:href="#linearGradient717"
       gradientUnits="userSpaceOnUse"
       gradientTransform="matrix(1.1799421,0,0,0.84749918,-94.434413,-72.282097)" /><radialGradient
       cx="371.3949"
       cy="411.75641"
       r="86.142273"
       fx="371.3949"
       fy="411.75641"
       id="radialGradient760"
       xlink:href="#linearGradient717"
       gradientUnits="userSpaceOnUse"
       gradientTransform="matrix(0.8830161,0,0,1.1324822,-94.434413,-72.282097)" /><radialGradient
       cx="451.95837"
       cy="427.5553"
       r="83.845161"
       fx="451.95837"
       fy="427.5553"
       id="radialGradient761"
       xlink:href="#linearGradient717"
       gradientUnits="userSpaceOnUse"
       gradientTransform="matrix(0.83007776,0,0,1.2047064,-94.434413,-72.282097)" /><radialGradient
       cx="228.45454"
       cy="494.90338"
       r="75.634567"
       fx="228.45454"
       fy="494.90338"
       id="radialGradient762"
       xlink:href="#linearGradient717"
       gradientUnits="userSpaceOnUse"
       gradientTransform="matrix(1.0447617,0,0,0.95715603,-94.434413,-72.282097)" /><radialGradient
       cx="163.14745"
       cy="486.61469"
       r="76.770981"
       fx="163.14745"
       fy="486.61469"
       id="radialGradient763"
       xlink:href="#linearGradient717"
       gradientUnits="userSpaceOnUse"
       gradientTransform="matrix(1.1013319,0,0,0.90799152,-94.434413,-72.282097)" /><radialGradient
       cx="319.0228"
       cy="471.7774"
       r="79.947662"
       fx="319.0228"
       fy="471.7774"
       id="radialGradient764"
       xlink:href="#linearGradient717"
       gradientUnits="userSpaceOnUse"
       gradientTransform="matrix(0.88767515,0,0,1.1265382,-94.434413,-72.282097)" /><radialGradient
       cx="380.32831"
       cy="464.26715"
       r="79.970955"
       fx="380.32831"
       fy="464.26715"
       id="radialGradient765"
       xlink:href="#linearGradient717"
       gradientUnits="userSpaceOnUse"
       gradientTransform="matrix(0.8306843,0,0,1.2038268,-94.434413,-72.282097)" /><radialGradient
       cx="250.93906"
       cy="528.76935"
       r="70.897179"
       fx="250.93906"
       fy="528.76935"
       id="radialGradient766"
       xlink:href="#linearGradient717"
       gradientUnits="userSpaceOnUse"
       gradientTransform="matrix(0.94408702,0,0,1.0592244,-94.434413,-72.282097)" /><radialGradient
       cx="159.92256"
       cy="552.80927"
       r="70.186035"
       fx="159.92256"
       fy="552.80927"
       id="radialGradient767"
       xlink:href="#linearGradient717"
       gradientUnits="userSpaceOnUse"
       gradientTransform="matrix(1.0540388,0,0,0.94873168,-94.434413,-72.282097)" /><radialGradient
       cx="279.75797"
       cy="348.95212"
       r="214.52773"
       fx="279.75797"
       fy="348.95212"
       id="radialGradient768"
       xlink:href="#linearGradient792"
       gradientUnits="userSpaceOnUse"
       gradientTransform="matrix(1.2723809,0,0,0.78592819,-94.434413,-72.282097)" /><radialGradient
       cx="312.58899"
       cy="496.23215"
       r="72.388115"
       fx="312.58899"
       fy="496.23215"
       id="radialGradient769"
       xlink:href="#linearGradient717"
       gradientUnits="userSpaceOnUse"
       gradientTransform="matrix(0.83512626,0,0,1.1974237,-94.434413,-72.282097)" /><radialGradient
       cx="192.45778"
       cy="546.88141"
       r="69.37764"
       fx="192.45778"
       fy="546.88141"
       id="radialGradient770"
       xlink:href="#linearGradient717"
       gradientUnits="userSpaceOnUse"
       gradientTransform="matrix(0.9622895,0,0,1.0391883,-94.434413,-72.282097)" /><radialGradient
       cx="243.34386"
       cy="547.51099"
       r="71.158768"
       fx="243.34386"
       fy="547.51099"
       id="radialGradient771"
       xlink:href="#linearGradient717"
       gradientUnits="userSpaceOnUse"
       gradientTransform="matrix(0.91118405,0,0,1.0974731,-94.434413,-72.282097)" /><radialGradient
       cx="387.60086"
       cy="277.54633"
       r="209.7034"
       fx="387.60086"
       fy="277.54633"
       id="radialGradient772"
       xlink:href="#linearGradient792"
       gradientUnits="userSpaceOnUse"
       gradientTransform="matrix(0.93714603,0,0,1.0670696,-94.434413,-72.282097)" /><radialGradient
       cx="0.089994177"
       cy="0.66344678"
       r="0.78364265"
       fx="0.089994177"
       fy="0.66344678"
       id="radialGradient773"
       xlink:href="#linearGradient792"
       gradientTransform="scale(1.149322,0.870079)" /><radialGradient
       cx="0.5"
       cy="0.5"
       r="0.5"
       fx="0.5"
       fy="0.5"
       id="radialGradient774"
       xlink:href="#linearGradient792" /><radialGradient
       id="radialGradient775"
       xlink:href="#linearGradient717" /></defs><path
     d="m 68.768187,508.8003 c -1.014,23.333 10.844,67.933 29.225,91.641 32.297003,-3.19 64.069003,-30.124 77.384003,-48.477 25.498,-31.898 0.214,-79.722 -29.225,-91.642 -29.44,-11.919 -76.061003,6.443 -77.384003,48.478 z"
     id="path716"
     style="font-size:12px;fill:url(#radialGradient771);stroke:#4c6623;stroke-width:12.5;stroke-linecap:round;stroke-linejoin:round" /><path
     d="m 132.46719,531.2113 c -17.698,14.745 -59.750003,31.593 -89.305003,30.626 -16.754,-28.441 -14.572,-70.607 -8.115,-92.49 9.815,-39.971 62.403,-47.709 89.305003,-30.626 26.901,17.083 40.296,66.34 8.115,92.49 z"
     id="path715"
     style="font-size:12px;fill:url(#radialGradient770);stroke:#4c6623;stroke-width:12.5;stroke-linecap:round;stroke-linejoin:round" /><path
     d="m 112.78019,507.5613 c 2.298,25.448 41.089,59.166 39.005,94.786 28.72,-8.478 53.698,-42.61 63.191,-64.572 18.629,-38.537 -10.785,-86.444 -39.005,-94.787 -28.221,-8.343 -67.784,18.806 -63.191,64.573 z"
     id="path711"
     style="font-size:12px;fill:url(#radialGradient769);stroke:#4c6623;stroke-width:12.5;stroke-linecap:round;stroke-linejoin:round" /><path
     d="m 108.76719,492.9083 c -22.207003,12.156 -71.426003,-1.867 -99.5750034,19.615 -8.92997001,-28.901 5.3170004,-68.853 18.1270004,-89.017 21.386,-37.042 77.083003,-38.78 99.575003,-19.615 22.491,19.165 22.066,67.545 -18.127,89.017 z"
     id="path713"
     style="font-size:12px;fill:url(#radialGradient767);stroke:#4c6623;stroke-width:12.5;stroke-linecap:round;stroke-linejoin:round" /><path
     d="m 189.43419,511.0533 c -15.664,17.463 -55.47,41.292 -85.269,45.596 -20.856003,-24.65 -24.661003,-65.994 -21.292003,-88.396 4.169,-40.567 55.843003,-57.416 85.269003,-45.597 29.426,11.819 49.87,57.286 21.292,88.397 z"
     id="path714"
     style="font-size:12px;fill:url(#radialGradient766);stroke:#4c6623;stroke-width:12.5;stroke-linecap:round;stroke-linejoin:round" /><path
     d="m 162.08719,472.2533 c 3.623,28.319 47.915,64.553 47.13,104.383 31.369,-10.497 57.51,-49.492 67.063,-74.346 18.939,-43.681 -15.598,-96.088 -47.131,-104.383 -31.534,-8.294 -74.086,23.432 -67.062,74.346 z"
     id="path707"
     style="font-size:12px;fill:url(#radialGradient765);stroke:#4c6623;stroke-width:12.5;stroke-linecap:round;stroke-linejoin:round" /><path
     d="m 124.98519,445.7853 c 4.194,26.37 26.862,74.137 51.738,97.222 33.578,-9.753 61.236,-46.042 71.23,-69.177 19.874,-40.658 -17.781,-89.477 -51.738,-97.221 -33.957,-7.745 -79.32,21.767 -71.23,69.176 z"
     id="path708"
     style="font-size:12px;fill:url(#radialGradient764);stroke:#4c6623;stroke-width:12.5;stroke-linecap:round;stroke-linejoin:round" /><path
     d="m 121.78719,418.6713 c -25.901003,11.736 -79.816003,-7.194 -113.1630034,14.346 -7.53797,-32.352 11.8170004,-75.158 27.8760004,-96.357 27.099,-39.099 89.611003,-36.993 113.162003,-14.346 23.552,22.646 18.957,75.695 -27.875,96.357 z"
     id="path709"
     style="font-size:12px;fill:url(#radialGradient763);stroke:#4c6623;stroke-width:12.5;stroke-linecap:round;stroke-linejoin:round" /><path
     d="m 183.75819,451.9923 c -23.619,11.66 -75.062,20.231 -107.922003,12.779 -11.452,-33.568 1.841,-77.455 14.704,-99.072 21.280003,-39.914 82.181003,-36.607 107.922003,-12.778 25.741,23.829 28.074,78.566 -14.704,99.071 z"
     id="path710"
     style="font-size:12px;fill:url(#radialGradient762);stroke:#4c6623;stroke-width:12.5;stroke-linecap:round;stroke-linejoin:round" /><path
     d="m 218.18819,427.6783 c 3.814,29.81 50.437,67.951 49.611,109.877 33.02,-11.05 60.536,-52.097 70.592,-78.258 19.936,-45.981 -16.419,-101.146 -49.612,-109.877 -33.193,-8.731 -77.985,24.665 -70.591,78.258 z"
     id="path703"
     style="font-size:12px;fill:url(#radialGradient761);stroke:#4c6623;stroke-width:12.5;stroke-linecap:round;stroke-linejoin:round" /><path
     d="m 164.63619,379.8743 c 4.316,28.682 28.405,80.517 55.077,105.455 36.332,-10.891 66.485,-50.631 77.462,-75.904 21.784,-44.435 -18.478,-97.294 -55.077,-105.454 -36.6,-8.161 -85.816,24.341 -77.462,75.903 z"
     id="path704"
     style="font-size:12px;fill:url(#radialGradient760);stroke:#4c6623;stroke-width:12.5;stroke-linecap:round;stroke-linejoin:round" /><path
     d="m 138.78319,343.4493 c -28.947,9.449 -83.965003,-15.58 -122.012003,3.214 -4.101,-34.12 21.644,-76.268 41.275,-96.478 33.53,-37.533 99.718003,-28.969 122.013003,-3.215 22.295,25.755 10.998,79.969 -41.276,96.479 z"
     id="path705"
     style="font-size:12px;fill:url(#radialGradient759);stroke:#4c6623;stroke-width:12.5;stroke-linecap:round;stroke-linejoin:round" /><path
     d="m 220.76419,364.2053 c -24.545,13.222 -78.611,24.406 -113.613,18.019 -13.317003,-34.647 -0.851,-81.159 11.965,-104.341 21.051,-42.698 85.544,-41.855 113.613,-18.018 28.07,23.837 32.512,81.035 -11.965,104.34 z"
     id="path706"
     style="font-size:12px;fill:url(#radialGradient758);stroke:#4c6623;stroke-width:12.5;stroke-linecap:round;stroke-linejoin:round" /><path
     d="m 277.52319,380.8363 c 7.314,31.31 59.776,67.368 63.672,111.998 32.844,-14.907 56.606,-61.16 64.026,-89.922 15.377,-50.769 -28.411,-105.902 -63.673,-111.998 -35.263,-6.096 -77.731,33.684 -64.025,89.922 z"
     id="path699"
     style="font-size:12px;fill:url(#radialGradient757);stroke:#4c6623;stroke-width:12.5;stroke-linecap:round;stroke-linejoin:round" /><path
     d="m 215.54719,308.2013 c 4.648,29.219 29.764,82.147 57.328,107.725 37.205,-10.806 67.851,-51.016 78.924,-76.65 22.021,-45.05 -19.702,-99.143 -57.327,-107.724 -37.625,-8.581 -87.889,24.118 -78.925,76.649 z"
     id="path700"
     style="font-size:12px;fill:url(#radialGradient756);stroke:#4c6623;stroke-width:12.5;stroke-linecap:round;stroke-linejoin:round" /><path
     d="m 171.21019,257.0043 c -31.91,6.78 -87.362003,-24.648 -130.073003,-9.166 -0.235,-35.593 32.224,-76.407 55.532,-95.233 40.175003,-35.262 109.489003,-19.663 130.073003,9.166 20.584,28.829 2.024,83.561 -55.532,95.233 z"
     id="path701"
     style="font-size:12px;fill:url(#radialGradient755);stroke:#4c6623;stroke-width:12.5;stroke-linecap:round;stroke-linejoin:round" /><path
     d="m 262.77119,295.4093 c -27.909,10.109 -86.554,13.871 -122.371,2.247 -8.541,-37.658 11.915,-83.849 29.057,-105.92 28.887,-41.021 96.603,-30.876 122.371,-2.247 25.768,28.628 21.413,88.275 -29.057,105.92 z"
     id="path702"
     style="font-size:12px;fill:url(#radialGradient754);stroke:#4c6623;stroke-width:12.5;stroke-linecap:round;stroke-linejoin:round" /><path
     d="m 344.77219,294.7993 c 10.931,30.277 67.217,60.044 76.318,103.957 30.841,-18.623 48.996,-67.355 52.985,-96.807 9.304,-52.25 -40.611,-101.983 -76.317,-103.957 -35.706,-1.974 -73.181,42.49 -52.986,96.807 z"
     id="path695"
     style="font-size:12px;fill:url(#radialGradient751);stroke:#4c6623;stroke-width:12.5;stroke-linecap:round;stroke-linejoin:round" /><path
     d="m 276.45819,215.4723 c 2.716,30.006 24.51,86.016 50.632,114.614 38.334,-7.238 72.032,-44.859 84.962,-69.681 25.31,-43.371 -13.189,-102.207 -50.632,-114.614 -37.443,-12.409 -90.459,15.673 -84.962,69.681 z"
     id="path696"
     style="font-size:12px;fill:url(#radialGradient753);stroke:#4c6623;stroke-width:12.5;stroke-linecap:round;stroke-linejoin:round" /><path
     d="m 215.46819,184.9813 c -33.091,-5.499 -74.084,-53.979 -120.824003,-55.568 13.376003,-32.147997 59.996003,-57.107997 89.469003,-65.588997 51.873,-17.152 112.165,22.111 120.823,55.567997 8.658,33.457 -29.995,76.009 -89.468,65.589 z"
     id="path697"
     style="font-size:12px;fill:url(#radialGradient752);stroke:#4c6623;stroke-width:12.5;stroke-linecap:round;stroke-linejoin:round" /><path
     d="m 466.99219,103.9913 c -60.223,5.124 -111.883,29.03 -159.347,60.156 l -6.793,-17.983 c 47.292,-35.465 99.294,-50.692997 159.347,-60.154997 l 6.793,17.981997 z"
     id="path791"
     style="font-size:12px;fill:url(#linearGradient720);fill-rule:evenodd;stroke:#4c6623;stroke-width:12.5;stroke-linecap:round;stroke-linejoin:round" /><path
     d="m 325.42219,215.3463 c -27.109,11.318 -85.119,18.458 -121.38,9.565 -10.731,-35.334 6.823,-80.55 22.526,-102.603 26.234,-40.805997 94.082,-35.256997 121.38,-9.566 27.298,25.692 26.537,82.742 -22.526,102.604 z"
     id="path698"
     style="font-size:12px;fill:url(#radialGradient750);stroke:#4c6623;stroke-width:12.5;stroke-linecap:round;stroke-linejoin:round" /><path
     d="m 278.02319,132.0683 c -21.848,-29.389 -35.265,-86.565997 -68.15,-124.9959872 20.09,-5.254 61.585,19.8460002 85.425,39.3519902 42.691,33.222 72.921,101.345997 68.149,124.995997 -4.77,23.65 -46.333,13.735 -85.424,-39.352 z"
     id="path785"
     style="font-size:12px;fill:url(#radialGradient772);stroke:#4c6623;stroke-width:12.5;stroke-linecap:round;stroke-linejoin:round" /><path
     d="m 392.78719,125.5743 c 26.985,11.973 56.537,56.765 95.227,69.235 -14.105,19.873 -55.168,26.523 -80.446,25.479 -44.699,-0.238 -91.145,-43.08 -95.226,-69.234 -4.081,-26.155 31.996,-47.385 80.445,-25.48 z"
     id="path788"
     style="font-size:12px;fill:url(#radialGradient768);stroke:#4c6623;stroke-width:12.5;stroke-linecap:round;stroke-linejoin:round" /></svg>